<svg xmlns="http://www.w3.org/2000/svg" width="88" height="58" viewBox="0 0 88 58" fill="#7e7e7e">
  <path d="M26.8125,0.36218 C26.3187726,0.414337975 25.8620879,0.648249682 25.53125,1.01843 L0.53125,28.01843 C-0.160217875,28.7808323 -0.160217875,29.9435277 0.53125,30.70593 L25.53125,57.70593 C25.9074144,58.1205936 26.4401491,58.358624 27,58.36218 L86,58.36218 C87.1045238,58.3620696 87.9998896,57.4667038 88,56.36218 L88,2.36218 C87.9998896,1.25765622 87.1045238,0.362290381 86,0.36218 L27,0.36218 C26.9375344,0.359248995 26.8749656,0.359248995 26.8125,0.36218 Z M27.875,4.36218 L84,4.36218 L84,54.36218 L27.875,54.36218 L4.71875,29.36218 L27.875,4.36218 Z M40.78125,15.33093 C40.0027412,15.4066955 39.3398271,15.9293031 39.0844273,16.6686185 C38.8290274,17.4079339 39.0280094,18.2282875 39.59375,18.76843 L50.1875,29.36218 L39.59375,39.92468 C39.0691678,40.4235728 38.855099,41.166981 39.0340287,41.8684542 C39.2129583,42.5699273 39.7569566,43.1199701 40.4564099,43.3066396 C41.1558632,43.4933092 41.9015914,43.2874677 42.40625,42.76843 L53,32.17468 L63.59375,42.76843 C64.0984086,43.2874677 64.8441368,43.4933092 65.5435901,43.3066396 C66.2430434,43.1199701 66.7870417,42.5699273 66.9659713,41.8684542 C67.144901,41.166981 66.9308322,40.4235728 66.40625,39.92468 L55.8125,29.36218 L66.40625,18.76843 C67.0427816,18.1706013 67.2179069,17.2289338 66.8388609,16.4422345 C66.4598148,15.6555353 65.6142228,15.2056679 64.75,15.33093 C64.3092314,15.3946082 63.9023201,15.6035626 63.59375,15.92468 L53,26.51843 L42.40625,15.92468 C41.9826199,15.490626 41.3849224,15.2722365 40.78125,15.33093 L40.78125,15.33093 Z" transform="translate(0 -.362)"/>
</svg>
