<svg xmlns="http://www.w3.org/2000/svg" viewBox="0 0 28 29">
  <path d="M1.44,28.27 C2.02563509,28.8549068 2.97436491,28.8549068 3.56,28.27 L15,16.84 L26.44,28.27 C27.0256351,28.8549068 27.9743649,28.8549068 28.56,28.27 C28.8433721,27.9900661 29.002861,27.6083249 29.002861,27.21 C29.002861,26.8116751 28.8433721,26.4299339 28.56,26.15 L17.12,14.71 L28.56,3.27 C28.8433721,2.99006612 29.002861,2.60832486 29.002861,2.21 C29.002861,1.81167514 28.8433721,1.42993388 28.56,1.15 C27.9721202,0.570542533 27.0278798,0.570542533 26.44,1.15 L15,12.59 L3.56,1.15 C2.97212023,0.570542533 2.02787977,0.570542533 1.44,1.15 C1.15662795,1.42993388 0.997138959,1.81167514 0.997138959,2.21 C0.997138959,2.60832486 1.15662795,2.99006612 1.44,3.27 L12.88,14.71 L1.44,26.15 C1.15662795,26.4299339 0.997138959,26.8116751 0.997138959,27.21 C0.997138959,27.6083249 1.15662795,27.9900661 1.44,28.27 L1.44,28.27 Z" transform="translate(-1)"/>
</svg>
