<svg xmlns="http://www.w3.org/2000/svg" width="75" height="78" viewBox="0 0 75 78" fill="#0000008a">
  <path d="M74,17.5 L74,17.3 L74,17.3 C73.9,13.7 71,10.9 67.4,10.9 L64.1,10.9 L64.1,7.4 C64.1,3.7 61.1,0.8 57.5,0.8 C53.8,0.8 50.9,3.8 50.9,7.4 L50.9,10.9 L23.2,10.9 L23.2,7.4 C23.2,3.7 20.2,0.8 16.6,0.8 C13,0.8 10,3.8 10,7.4 L10,10.9 L6.7,10.9 C3.1,10.9 0.2,13.7 0.1,17.3 L0.1,17.3 L0.1,33.9 L0.1,33.9 L0.1,70.8 C0.1,74.5 3.1,77.4 6.7,77.4 L67.5,77.4 C71.2,77.4 74.1,74.4 74.1,70.8 L74,17.5 L74,17.5 Z M8.3,69 L8.3,33.8 L65.8,33.8 L65.8,69 L8.3,69 Z"/>
</svg>
