<svg xmlns="http://www.w3.org/2000/svg" width="318" height="318" viewBox="0 0 318 318">
  <path d="M317.8,231.2 L317.8,301.5 C317.8,302.9 317.6,304.2 317.3,305.4 L317.3,305.4 C317.3,305.4 317.3,305.4 317.3,305.4 C315.9,312.3 309.8,317.5 302.6,317.5 L15.3,317.5 C7.6,317.5 1.2,311.6 0.4,304.1 C0.2,303.2 0.2,302.4 0.2,301.4 L0.2,231.1 C0.2,222.8 7,216.1 15.2,216.1 C19.3,216.1 23.1,217.8 25.8,220.5 C28.5,223.2 30.2,227 30.2,231.1 L30.2,287.4 L287.9,287.4 L287.9,231.1 C287.9,222.8 294.7,216.1 302.9,216.1 C307,216.1 310.8,217.8 313.5,220.5 C316.1,223.3 317.8,227.1 317.8,231.2 Z"/>
  <path d="M245.5,160.8 L171.8,234.5 C171.7,234.7 171.5,234.8 171.4,234.9 C168.7,237.6 165.2,239.3 161.7,239.8 C161.4,239.8 161.1,239.9 160.8,239.9 C160.2,240 159.6,240 159,240 L159,240 L157.3,239.9 C157,239.9 156.7,239.8 156.4,239.8 C152.8,239.3 149.4,237.6 146.7,234.9 C146.6,234.8 146.4,234.6 146.3,234.5 L72.6,160.8 C69.2,157.4 67.5,152.9 67.5,148.4 C67.5,143.9 69.2,139.4 72.6,136 C79.4,129.2 90.5,129.2 97.4,136 L141.7,180.3 L141.7,18 C141.7,8.4 149.6,0.5 159.2,0.5 C164,0.5 168.4,2.5 171.6,5.6 C174.8,8.8 176.7,13.1 176.7,18 L176.7,180.3 L221,136 C227.8,129.2 238.9,129.2 245.8,136 C252.3,142.9 252.3,154 245.5,160.8 Z"/>
</svg>
