<svg xmlns="http://www.w3.org/2000/svg" width="79" height="70" viewBox="0 0 79 70" fill="#000">
  <path d="M78.2,60.5 L45.1,3.5 C44,1.6 42.1,0.5 39.9,0.5 C37.7,0.5 35.8,1.6 34.7,3.5 L1.6,60.5 C0.5,62.4 0.5,64.6 1.6,66.5 C2.7,68.4 4.6,69.5 6.8,69.5 L72.9,69.5 C75.1,69.5 77,68.4 78.1,66.5 C79.2,64.6 79.3,62.4 78.2,60.5 Z M74.8,64.5 C74.6,64.8 74.1,65.5 73.1,65.5 L6.9,65.5 C5.9,65.5 5.3,64.8 5.2,64.5 C5,64.2 4.7,63.4 5.2,62.5 L38.3,5.5 C38.8,4.6 39.7,4.5 40,4.5 C40.3,4.5 41.2,4.6 41.7,5.5 L74.8,62.5 C75.3,63.4 75,64.2 74.8,64.5 Z"/>
  <path d="M40,25.5 C38.9,25.5 38,26.4 38,27.5 L38,50.5 C38,51.6 38.9,52.5 40,52.5 C41.1,52.5 42,51.6 42,50.5 L42,27.5 C42,26.4 41.1,25.5 40,25.5 Z"/>
  <circle cx="40" cy="19.5" r="2"/>
</svg>
