<svg xmlns="http://www.w3.org/2000/svg" width="49" height="68" viewBox="0 0 49 68">
  <path d="M39.321,68 L9.679,68 C4.434,68 0.167,63.733 0.167,58.488 L0.167,10.033 C0.167,4.788 4.434,0.521 9.679,0.521 L39.322,0.521 C44.567,0.521 48.834,4.788 48.834,10.033 L48.834,58.488 C48.833,63.733 44.566,68 39.321,68 Z M9.679,3.993 C6.349,3.993 3.639,6.703 3.639,10.033 L3.639,58.488 C3.639,61.818 6.349,64.528 9.679,64.528 L39.321,64.528 C42.651,64.528 45.361,61.818 45.361,58.488 L45.362,10.033 C45.362,6.703 42.652,3.993 39.322,3.993 L9.679,3.993 Z"/>
  <path d="M35.678,27.735 C35.255,27.312 34.57,27.312 34.147,27.735 L25.579,36.303 L25.579,13.861 C25.579,13.263 25.094,12.778 24.496,12.778 C23.898,12.778 23.413,13.263 23.413,13.861 L23.413,36.304 L14.845,27.736 C14.422,27.313 13.737,27.313 13.314,27.736 C12.891,28.159 12.891,28.844 13.314,29.267 L23.666,39.619 C23.685,39.642 23.705,39.665 23.727,39.687 C23.938,39.898 24.215,40.004 24.492,40.004 C24.493,40.004 24.494,40.004 24.495,40.004 C24.496,40.004 24.497,40.004 24.498,40.004 C24.775,40.004 25.052,39.898 25.263,39.687 C25.285,39.665 25.305,39.642 25.324,39.619 L35.676,29.267 C36.1,28.843 36.1,28.158 35.678,27.735 Z"/>
  <path d="M1.944 6.873L1.831 6.873C1.527 6.873 1.251 6.988 1.032 7.206.815 7.424.701 7.699.701 8.07.701 8.374.815 8.65 1.034 8.869 1.251 9.085 1.527 9.2 1.831 9.2L1.944 9.2C2.249 9.2 2.525 9.085 2.74 8.868 2.958 8.651 3.073 8.375 3.073 8.002 3.073 7.697 2.958 7.421 2.742 7.205 2.525 6.988 2.249 6.873 1.944 6.873zM11.014 7.654C11.014 7.416 10.927 7.196 10.767 7.021 10.465 6.687 9.967 6.662 9.629 6.829 9.356 6.973 9.074 7.089 8.792 7.177 8.526 7.259 8.194 7.301 7.804 7.301 6.982 7.301 6.363 7.063 5.911 6.574 5.492 6.118 5.289 5.519 5.289 4.741 5.289 3.963 5.492 3.365 5.911 2.909 6.116 2.686 6.376 2.508 6.685 2.38 7.328 2.112 8.268 2.145 8.791 2.306 9.075 2.394 9.356 2.511 9.64 2.66 9.951 2.813 10.466 2.794 10.763 2.466 10.926 2.288 11.013 2.07 11.013 1.835 11.013 1.631 10.964 1.45 10.868 1.298 10.771 1.145 10.606 1.013 10.296.843 10.052.711 9.724.577 9.295.433 8.845.281 8.309.204 7.701.204 6.424.204 5.359.616 4.54 1.427 3.693 2.257 3.265 3.372 3.265 4.742 3.265 6.113 3.694 7.228 4.536 8.054 4.936 8.455 5.416 8.763 5.959 8.972 6.495 9.177 7.079 9.28 7.695 9.28 8.306 9.28 8.843 9.203 9.294 9.051 9.725 8.906 10.133 8.727 10.489 8.53 10.823 8.362 11.014 8.043 11.014 7.654zM14.486 2.407C14.782 2.235 15.178 2.148 15.664 2.148 16.233 2.148 16.741 2.226 17.169 2.377 17.394 2.459 17.571 2.497 17.728 2.497 17.903 2.497 18.159 2.437 18.38 2.153 18.527 1.965 18.605 1.748 18.605 1.525 18.605 1.087 18.37.751 17.961.605 17.233.339 16.423.204 15.552.204 14.528.204 13.689.475 13.058 1.009 12.449 1.526 12.139 2.199 12.139 3.01 12.139 3.787 12.455 4.421 13.085 4.898 13.348 5.09 13.649 5.249 13.981 5.369 14.281 5.478 14.586 5.576 14.894 5.662 15.195 5.746 15.493 5.824 15.786 5.896 16.049 5.961 16.278 6.033 16.467 6.111 16.673 6.201 16.919 6.344 16.919 6.519 16.919 6.756 16.919 7.312 15.451 7.312 15.008 7.312 14.62 7.269 14.297 7.183 13.965 7.095 13.725 7.021 13.578 6.956 13.034 6.714 12.609 6.772 12.31 7.115 12.146 7.3 12.06 7.523 12.06 7.761 12.06 7.986 12.129 8.194 12.259 8.364 12.373 8.512 12.511 8.623 12.677 8.698 13.568 9.083 14.535 9.279 15.552 9.279 16.531 9.279 17.342 9.036 17.962 8.554 18.605 8.051 18.931 7.389 18.931 6.586 18.931 5.745 18.612 5.086 17.984 4.63 17.72 4.438 17.421 4.28 17.091 4.163 16.791 4.057 16.483 3.964 16.167 3.885 15.865 3.81 15.571 3.738 15.285 3.671 15.032 3.611 14.807 3.535 14.605 3.441 14.162 3.247 14.162 3.034 14.162 2.932 14.162 2.697 14.26 2.54 14.486 2.407zM26.825.259C26.432.259 26.106.498 25.929.922L23.75 6.356 21.567.915C21.392.499 21.035.26 20.588.26 20.313.26 20.068.366 19.883.568 19.708.757 19.616.984 19.616 1.221 19.616 1.407 19.639 1.548 19.687 1.659L22.472 8.413C22.793 9.118 23.332 9.223 23.624 9.223L23.871 9.223C24.163 9.223 24.702 9.118 25.03 8.396L27.805 1.666C27.857 1.547 27.88 1.406 27.88 1.222 27.88 1.056 27.833.809 27.612.569 27.485.427 27.244.259 26.825.259z" transform="translate(10 49)"/>
</svg>
