<svg xmlns="http://www.w3.org/2000/svg" width="26px" height="33px" viewBox="0 0 68 88">
  <path d="M1.8125,0.36218 C0.78178881,0.459321522 -0.00446406632,1.3269109 -2.22044605e-15,2.36218 L-2.22044605e-15,86.36218 C0.000110380603,87.4667038 0.895476225,88.3620696 2,88.36218 L66,88.36218 C67.1045238,88.3620696 67.9998896,87.4667038 68,86.36218 L68,2.36218 C67.9998896,1.25765622 67.1045238,0.362290381 66,0.36218 L2,0.36218 C1.93753436,0.359248995 1.87496564,0.359248995 1.8125,0.36218 Z M4,4.36218 L64,4.36218 L64,84.36218 L4,84.36218 L4,4.36218 Z M11.8125,12.36218 C10.7817888,12.4593216 9.99553598,13.3269109 10,14.36218 L10,26.36218 C10.0001104,27.4667038 10.8954762,28.3620696 12,28.36218 L34,28.36218 C35.1045238,28.3620696 35.9998896,27.4667038 36,26.36218 L36,14.36218 C35.9998896,13.2576562 35.1045238,12.3622904 34,12.36218 L12,12.36218 C11.9375344,12.359249 11.8749656,12.359249 11.8125,12.36218 Z M14,16.36218 L32,16.36218 L32,24.36218 L14,24.36218 L14,16.36218 Z M11.8125,36.36218 C11.0978668,36.3955352 10.4553308,36.8076582 10.1269854,37.44327 C9.79864002,38.0788819 9.83438264,38.8413911 10.2207462,39.443501 C10.6071098,40.0456109 11.2853802,40.395821 12,40.36218 L56,40.36218 C56.7212701,40.372378 57.3921584,39.9934263 57.7557695,39.3704322 C58.1193806,38.7474382 58.1193806,37.9769218 57.7557695,37.3539278 C57.3921584,36.7309337 56.7212701,36.351982 56,36.36218 L12,36.36218 C11.9375344,36.359249 11.8749656,36.359249 11.8125,36.36218 Z M11.8125,48.36218 C11.0978668,48.3955352 10.4553308,48.8076582 10.1269854,49.44327 C9.79864002,50.0788819 9.83438264,50.8413911 10.2207462,51.443501 C10.6071098,52.0456109 11.2853802,52.395821 12,52.36218 L56,52.36218 C56.7212701,52.372378 57.3921584,51.9934263 57.7557695,51.3704322 C58.1193806,50.7474382 58.1193806,49.9769218 57.7557695,49.3539278 C57.3921584,48.7309337 56.7212701,48.351982 56,48.36218 L12,48.36218 C11.9375344,48.359249 11.8749656,48.359249 11.8125,48.36218 Z M11.8125,60.36218 C11.0978668,60.3955352 10.4553308,60.8076582 10.1269854,61.44327 C9.79864002,62.0788819 9.83438264,62.8413911 10.2207462,63.443501 C10.6071098,64.0456109 11.2853802,64.395821 12,64.36218 L56,64.36218 C56.7212701,64.372378 57.3921584,63.9934263 57.7557695,63.3704322 C58.1193806,62.7474382 58.1193806,61.9769218 57.7557695,61.3539278 C57.3921584,60.7309337 56.7212701,60.351982 56,60.36218 L12,60.36218 C11.9375344,60.359249 11.8749656,60.359249 11.8125,60.36218 Z M11.8125,72.36218 C11.0978668,72.3955352 10.4553308,72.8076582 10.1269854,73.44327 C9.79864002,74.0788819 9.83438264,74.8413911 10.2207462,75.443501 C10.6071098,76.0456109 11.2853802,76.395821 12,76.36218 L56,76.36218 C56.7212701,76.372378 57.3921584,75.9934263 57.7557695,75.3704322 C58.1193806,74.7474382 58.1193806,73.9769218 57.7557695,73.3539278 C57.3921584,72.7309337 56.7212701,72.351982 56,72.36218 L12,72.36218 C11.9375344,72.359249 11.8749656,72.359249 11.8125,72.36218 Z" transform="translate(0 -.362)"/>
</svg>
