<svg xmlns="http://www.w3.org/2000/svg" width="38" height="35" viewBox="0 0 38 35">
  <path d="M13.25,8.25 C5.93222706,8.25 8.9616872e-16,14.1822271 0,21.5 C-8.9616872e-16,28.8177729 5.93222706,34.75 13.25,34.75 C20.5677729,34.75 26.5,28.8177729 26.5,21.5 C26.5,17.9858815 25.1040219,14.6156922 22.6191649,12.1308351 C20.1343078,9.64597813 16.7641185,8.25 13.25,8.25 Z M13.25,31.75 C7.58908131,31.75 3,27.1609187 3,21.5 C3,15.8390813 7.58908131,11.25 13.25,11.25 C18.9109187,11.25 23.5,15.8390813 23.5,21.5 C23.5,24.218469 22.4200924,26.8255966 20.4978445,28.7478445 C18.5755966,30.6700924 15.968469,31.75 13.25,31.75 Z M2.5,3 L36.5,3 C37.3284271,3 38,2.32842712 38,1.5 C38,0.671572875 37.3284271,5.07265313e-17 36.5,0 L2.5,0 C1.67157288,-5.07265313e-17 1,0.671572875 1,1.5 C1,2.32842712 1.67157288,3 2.5,3 Z M36.5,10 L26.5,10 C25.6715729,10 25,10.6715729 25,11.5 C25,12.3284271 25.6715729,13 26.5,13 L36.5,13 C37.3284271,13 38,12.3284271 38,11.5 C38,10.6715729 37.3284271,10 36.5,10 Z M36.5,30 L27.5,30 C26.6715729,30 26,30.6715729 26,31.5 C26,32.3284271 26.6715729,33 27.5,33 L36.5,33 C37.3284271,33 38,32.3284271 38,31.5 C38,30.6715729 37.3284271,30 36.5,30 Z M36.5,20 L30.5,20 C29.6715729,20 29,20.6715729 29,21.5 C29,22.3284271 29.6715729,23 30.5,23 L36.5,23 C37.3284271,23 38,22.3284271 38,21.5 C38,20.6715729 37.3284271,20 36.5,20 Z"/>
  <path d="M14.82,22.19 L14.88,22.08 L14.94,21.91 L14.94,21.8 C14.9500251,21.7002513 14.9500251,21.5997487 14.94,21.5 L14.94,21.5 L14.94,14.5 C14.94,13.6715729 14.2684271,13 13.44,13 C12.6115729,13 11.94,13.6715729 11.94,14.5 L11.94,20.7 L9.61,22.25 C9.04796896,22.621524 8.80259685,23.3221907 9.01004596,23.9631851 C9.21749506,24.6041795 9.82686366,25.0282211 10.5,25 C10.7949819,24.9984217 11.0832185,24.9116035 11.33,24.75 L14.33,22.75 L14.33,22.75 C14.4110535,22.6921727 14.4879123,22.6286807 14.56,22.56 L14.66,22.44 L14.75,22.33 C14.7792486,22.286533 14.8027756,22.2394791 14.82,22.19 Z"/>
</svg>
