<svg xmlns="http://www.w3.org/2000/svg" width="60" height="42" viewBox="0 0 60 42">
  <path d="M3,0.36217 C1.34315,0.36217 0,1.70527 0,3.36217 C0,5.01897 1.34315,6.36217 3,6.36217 L57,6.36217 C58.65685,6.36217 60,5.01897 60,3.36217 C60,1.70527 58.65685,0.36217 57,0.36217 L3,0.36217 Z M3,18.36217 C1.34315,18.36217 0,19.7053 0,21.3622 C0,23.019 1.34315,24.3622 3,24.3622 L57,24.3622 C58.65685,24.3622 60,23.019 60,21.3622 C60,19.7053 58.65685,18.36217 57,18.36217 L3,18.36217 Z M3,36.3622 C1.34315,36.3622 0,37.7053 0,39.3622 C0,41.019 1.34315,42.3622 3,42.3622 L57,42.3622 C58.65685,42.3622 60,41.019 60,39.3622 C60,37.7053 58.65685,36.3622 57,36.3622 L3,36.3622 Z" transform="translate(0 -.362)"/>
</svg>
