<svg xmlns="http://www.w3.org/2000/svg" width="33" height="33" viewBox="0 0 33 33">
  <g fill="none" fill-rule="evenodd">
    <rect width="32" height="32" x=".5" y=".5" fill="#EFEFEF" stroke="#9B9B9B"/>
    <path fill="#000" fill-rule="nonzero" d="M0.253011747,14.7649363 C0.587591995,15.0783546 1.12961255,15.0783546 1.4641928,14.7649363 L8.00000001,8.64025063 L14.5358072,14.7649363 C14.8703875,15.0783546 15.412408,15.0783546 15.7469883,14.7649363 C15.9088821,14.6149357 16,14.4103823 16,14.1969427 C16,13.9835031 15.9088821,13.7789498 15.7469883,13.6289491 L9.21118107,7.498905 L15.7469883,1.36886088 C15.9088821,1.21886026 16,1.01430687 16,0.800867278 C16,0.587427683 15.9088821,0.382874294 15.7469883,0.232873679 C15.4111256,-0.0776245595 14.8716699,-0.0776245595 14.5358072,0.232873679 L8.00000001,6.36291781 L1.4641928,0.232873679 C1.12833014,-0.0776245595 0.588874408,-0.0776245595 0.253011747,0.232873679 C0.0911179455,0.382874294 0,0.587427683 0,0.800867278 C0,1.01430687 0.0911179455,1.21886026 0.253011747,1.36886088 L6.78881896,7.498905 L0.253011747,13.6289491 C0.0911179455,13.7789498 0,13.9835031 0,14.1969427 C0,14.4103823 0.0911179455,14.6149357 0.253011747,14.7649363 L0.253011747,14.7649363 Z" transform="translate(9 9)"/>
  </g>
</svg>
