<svg xmlns="http://www.w3.org/2000/svg" width="23" height="23" viewBox="0 0 23 23" fill="#7e7e7e">
  <path d="M22.584,22.168 L16.178,15.764 C17.469,14.158 18.174,12.177 18.174,10.086 C18.174,7.658 17.229,5.377 15.512,3.661 C13.796,1.944 11.514,0.999 9.087,0.999 C6.66,0.999 4.377,1.944 2.662,3.661 C-0.881,7.204 -0.881,12.969 2.662,16.512 C4.378,18.228 6.66,19.173 9.087,19.173 C11.177,19.173 13.157,18.468 14.764,17.178 L21.17,23.582 C21.365,23.777 21.621,23.875 21.877,23.875 C22.133,23.875 22.389,23.777 22.584,23.582 C22.975,23.191 22.975,22.559 22.584,22.168 Z M4.076,15.098 C1.313,12.334 1.313,7.838 4.076,5.076 C5.414,3.737 7.194,3 9.087,3 C10.98,3 12.76,3.737 14.098,5.076 C15.437,6.414 16.174,8.194 16.174,10.087 C16.174,11.981 15.437,13.76 14.098,15.099 C12.76,16.437 10.98,17.174 9.087,17.174 C7.194,17.174 5.414,16.436 4.076,15.098 Z" transform="translate(0 -1)"/>
</svg>
